<svg width="238" height="101" viewBox="0 0 238 101" fill="none" xmlns="http://www.w3.org/2000/svg">
<path d="M25.1933 25.1933L84.8014 41.1653L41.1653 84.8014L25.1933 25.1933Z" fill="#66CC66"/>
<path d="M19.6482 49.8802L42.8091 26.7193C46.7144 22.8141 53.046 22.8141 56.9513 26.7193L80.1122 49.8802L56.9512 73.0412C53.046 76.9464 46.7144 76.9464 42.8091 73.0412L19.6482 49.8802Z" fill="black"/>
<path d="M48.4829 63.8096L46.2201 61.5469L47.9172 59.8498H44.5231L38.5834 53.9101C38.0554 53.3821 37.7914 52.7222 37.7914 51.9302C37.7914 51.1383 38.0554 50.4783 38.5834 49.9503L48.4829 40.0508C49.0108 39.5228 49.6708 39.2589 50.4628 39.2589C51.2547 39.2589 51.9147 39.5228 52.4427 40.0508L62.3422 49.9503L60.3623 51.9302L50.7456 42.3136L40.8461 52.2131L48.2 59.567L52.1598 55.6072L48.4829 51.9302H52.4427L56.4025 55.89L48.4829 63.8096Z" fill="#767676"/>
<path d="M50.1513 64.1092L47.8885 61.8464L49.5856 60.1494H46.1915L40.2518 54.2097C39.7238 53.6817 39.4598 53.0217 39.4598 52.2298C39.4598 51.4378 39.7238 50.7779 40.2518 50.2499L50.1513 40.3504C50.6792 39.8224 51.3392 39.5584 52.1312 39.5584C52.9231 39.5584 53.5831 39.8224 54.1111 40.3504L64.0106 50.2499L62.0307 52.2298L52.414 42.6131L42.5145 52.5126L49.8684 59.8665L53.8282 55.9067L50.1513 52.2298H54.1111L58.0709 56.1896L50.1513 64.1092Z" fill="white"/>
<path d="M108.6 60.0626H94.6V46.0626L97.4 43.2626H94.6V40.4626H108.6V43.2626H97.8V51.2626L100.2 48.8626H108.6V51.6626H97.8V57.2626H108.6V60.0626ZM131.2 57.2626C131.2 58.036 130.92 58.7026 130.36 59.2626C129.827 59.796 129.173 60.0626 128.4 60.0626H117.2C116.427 60.0626 115.76 59.796 115.2 59.2626C114.667 58.7026 114.4 58.036 114.4 57.2626V43.2626C114.4 42.4893 114.667 41.836 115.2 41.3026C115.76 40.7426 116.427 40.4626 117.2 40.4626H128.4C129.173 40.4626 129.827 40.7426 130.36 41.3026C130.92 41.836 131.2 42.4893 131.2 43.2626V46.0626H128V43.2626H117.6V57.2626H128V54.4626H131.2V57.2626ZM155.017 40.4626L146.137 48.7426V49.1426H151.217C151.991 49.1426 152.644 49.4226 153.177 49.9826C153.737 50.516 154.017 51.1693 154.017 51.9426V60.0626H150.817V51.6626H140.417V60.0626H137.217V40.4626H140.417V51.1426L151.057 40.4626H155.017ZM177.02 57.2626C177.02 58.036 176.74 58.7026 176.18 59.2626C175.647 59.796 174.994 60.0626 174.22 60.0626H163.02C162.247 60.0626 161.58 59.796 161.02 59.2626C160.487 58.7026 160.22 58.036 160.22 57.2626V43.2626C160.22 42.4893 160.487 41.836 161.02 41.3026C161.58 40.7426 162.247 40.4626 163.02 40.4626H174.22C174.994 40.4626 175.647 40.7426 176.18 41.3026C176.74 41.836 177.02 42.4893 177.02 43.2626V57.2626ZM173.82 57.2626V43.2626H163.42V57.2626H173.82Z" fill="white"/>
</svg>
